<?xml version="1.0" encoding="iso-8859-1"?>
<!-- Uploaded to: SVG Repo, www.svgrepo.com, Generator: SVG Repo Mixer Tools -->
<svg version="1.1" id="Layer_1" xmlns="http://www.w3.org/2000/svg" xmlns:xlink="http://www.w3.org/1999/xlink" 
	 viewBox="0 0 512 512" xml:space="preserve">
<path style="fill:#FEDEA1;" d="M256,499.204c64.956,0,126.029-25.293,171.964-71.228c94.814-94.822,94.814-249.114,0-343.936
	C382.029,38.106,320.956,12.813,256,12.813S129.971,38.106,84.036,84.041c-94.814,94.822-94.814,249.114,0,343.936
	C129.971,473.903,191.044,499.204,256,499.204z"/>
<g>
	<path style="fill:#573A32;" d="M74.982,74.987c-99.977,99.968-99.977,262.067,0,362.027c99.968,99.977,262.067,99.977,362.035,0
		c99.977-99.968,99.977-262.067,0-362.027C337.05-24.99,174.95-24.99,74.982,74.987z M418.918,418.923
		c-89.984,89.967-235.853,89.967-325.837,0c-89.967-89.984-89.967-235.853,0-325.828c89.984-89.967,235.853-89.967,325.837,0
		C508.885,183.07,508.885,328.939,418.918,418.923z"/>
	<path style="fill:#573A32;" d="M256,115.204c-77.756,0-140.8,63.036-140.8,140.8H76.8l51.2,51.2l51.2-51.2h-38.4
		c0-63.625,51.567-115.2,115.2-115.2s115.2,51.575,115.2,115.2s-51.567,115.2-115.2,115.2v25.6c77.756,0,140.8-63.036,140.8-140.8
		S333.756,115.204,256,115.204z"/>
</g>
</svg>